<?xml version="1.0" standalone="no"?><!DOCTYPE svg PUBLIC "-//W3C//DTD SVG 1.1//EN" "http://www.w3.org/Graphics/SVG/1.1/DTD/svg11.dtd"><svg t="1642407404468" class="icon" viewBox="0 0 1024 1024" version="1.1" xmlns="http://www.w3.org/2000/svg" p-id="4121" xmlns:xlink="http://www.w3.org/1999/xlink" width="200" height="200"><defs><style type="text/css"></style></defs><path d="M993.435152 516.964848c8.595394 1.50497 17.206303 10.581333 15.980606 19.238788-16.384 116.332606-132.002909 177.912242-254.293334 173.149091-32.178424-1.241212-56.040727-5.694061-84.448969-17.408-11.279515 44.885333-46.08 146.432-103.129213 203.651879-90.515394 90.763636-167.067152 120.645818-252.121212 120.645818-151.58303 0-186.026667-27.834182-227.141818-58.771394C44.156121 924.253091 18.40097 866.986667 15.484121 825.281939c-2.901333-41.704727-8.486788-105.813333 33.466182-157.680484s81.299394-66.032485 133.818182-77.24994c22.962424-4.902788 48.531394-14.646303 60.291879-25.320727 11.791515-10.689939 37.282909-33.435152 40.385939-61.750303 5.476848-50.005333 15.266909-94.549333 53.992727-127.767273 1.318788-1.132606-24.932848-52.875636-24.932848-127.643151 0-55.140848 12.644848-113.834667 43.675151-156.718546 32.79903-45.304242 77.420606-73.774545 131.04097-81.268363 55.823515-7.804121 127.379394 5.957818 171.799273 40.634181 43.132121 33.652364 64.03103 82.91297 69.895757 136.409212 3.10303 28.315152 13.405091 45.195636 29.12194 60.943516 15.716848 15.763394 27.073939 23.00897 55.32703 26.127515 89.460364 9.867636 181.651394 66.823758 196.049455 158.626909 1.349818 8.641939-7.121455 19.859394-16.384 21.286788-14.087758 5.399273-31.340606-3.025455-32.643879-11.450182-12.194909-77.730909-73.603879-114.532848-148.945455-122.84897-35.343515-3.909818-62.898424-16.290909-83.781818-37.236363-20.883394-20.945455-39.563636-57.095758-43.442424-92.547879-4.933818-44.916364-19.518061-76.132848-55.854546-104.479031-37.732848-29.447758-81.532121-36.119273-128.946424-29.494303-91.306667 12.76897-140.924121 88.917333-137.914182 193.939394 0.977455 34.350545 2.637576 49.63297 15.608243 84.44897a200.362667 200.362667 0 0 1 96.504242-24.638061c9.665939 0 19.409455 0.682667 29.013333 2.01697 53.589333 7.509333 89.708606 36.243394 127.286304 78.475637 37.562182 42.232242 52.999758 83.859394 58.228363 145.113212 2.327273 27.306667 5.368242 82.540606-2.373818 110.219636 29.633939 9.603879 42.868364 14.677333 72.052364 15.515152 101.608727 2.870303 190.339879-42.821818 205.668848-130.901334 1.458424-8.409212 13.932606-17.501091 29.944243-13.079273zM611.793455 124.431515c5.833697 5.957818 0 20.324848-10.022788 22.403879-10.038303 2.07903-19.037091 0.465455-22.016-2.094546-20.697212-17.764848-36.677818-26.112-64.062061-26.112-8.719515 0-14.553212-10.24-14.553212-18.990545A15.825455 15.825455 0 0 1 516.933818 83.781818c34.909091 0 70.609455 15.84097 94.859637 40.634182zM794.08097 355.452121c8.750545 0.961939 15.049697 8.812606 14.103272 17.532121-0.899879 8.129939-9.355636 17.066667-17.376969 17.066667-40.820364 0-90.825697-20.867879-122.30594-52.25503-31.464727-31.371636-46.902303-69.011394-52.410181-119.001212-0.961939-8.719515 2.916848-20.216242 17.097696-20.216243 14.196364 0 16.632242 5.321697 17.594182 14.041212 4.670061 42.309818 18.354424 72.73503 44.326788 98.629819 26.018909 25.910303 56.537212 39.548121 98.971152 44.202666z m-422.415515 153.817212c0.961939-8.719515-5.66303-16.570182-14.413576-17.516606-8.750545-0.930909-18.46303 5.430303-20.169697 14.041212-7.447273 37.624242-19.378424 72.719515-45.366303 98.645334-26.003394 25.910303-56.521697 39.532606-98.955637 44.187151-8.766061 0.961939-14.103273 3.475394-14.103272 17.532121 0 14.056727 17.004606 14.118788 17.594182 14.056728 50.129455-5.492364 86.310788-18.726788 117.79103-50.098425 31.464727-31.371636 52.099879-70.857697 57.623273-120.847515z m11.993212-61.145212c10.286545 2.404848 13.839515-0.062061 16.818424-2.404848 20.697212-16.368485 40.649697-26.468848 68.033939-26.468849 8.719515 0 15.794424-6.516364 15.794425-14.584242s-8.828121-22.341818-17.547637-22.341818c-34.909091 0-75.093333 12.862061-93.401212 40.122181-4.033939 6.019879 0 23.272727 10.302061 25.677576z" p-id="4122" fill="#b31aa5"></path></svg>